<svg xmlns="http://www.w3.org/2000/svg" xmlns:xlink="http://www.w3.org/1999/xlink" width="58" height="58" viewBox="0 0 58 58">
  <defs>
    <clipPath id="clip-path">
      <rect id="Rectangle_5" data-name="Rectangle 5" width="58" height="58" fill="none"/>
    </clipPath>
  </defs>
  <g id="Instagrram" transform="translate(-1618 -5743)">
    <g id="Instagrram-2" data-name="Instagrram" transform="translate(1618 5743)">
      <g id="Group_10" data-name="Group 10">
        <g id="Group_9" data-name="Group 9" clip-path="url(#clip-path)">
          <path id="Path_27" data-name="Path 27" d="M41.981,19.179a5.514,5.514,0,0,0-3.16-3.16,9.215,9.215,0,0,0-3.092-.573c-1.756-.08-2.283-.1-6.729-.1s-4.973.017-6.729.1a9.221,9.221,0,0,0-3.092.573,5.517,5.517,0,0,0-3.161,3.16,9.215,9.215,0,0,0-.573,3.092c-.08,1.756-.1,2.282-.1,6.729s.017,4.973.1,6.729a9.211,9.211,0,0,0,.573,3.092,5.514,5.514,0,0,0,3.16,3.16,9.2,9.2,0,0,0,3.092.573c1.756.08,2.282.1,6.729.1s4.974-.017,6.729-.1a9.2,9.2,0,0,0,3.092-.573,5.514,5.514,0,0,0,3.16-3.16,9.222,9.222,0,0,0,.574-3.092c.08-1.756.1-2.283.1-6.729s-.017-4.973-.1-6.729a9.2,9.2,0,0,0-.574-3.092M29,37.551A8.551,8.551,0,1,1,37.551,29,8.551,8.551,0,0,1,29,37.551m8.889-15.442a2,2,0,1,1,2-2,2,2,0,0,1-2,2"/>
          <path id="Path_28" data-name="Path 28" d="M34.551,29A5.551,5.551,0,1,1,29,23.449,5.551,5.551,0,0,1,34.551,29"/>
          <path id="Path_29" data-name="Path 29" d="M53.817,0H4.183A4.183,4.183,0,0,0,0,4.183V53.817A4.183,4.183,0,0,0,4.183,58H53.817A4.183,4.183,0,0,0,58,53.817V4.183A4.183,4.183,0,0,0,53.817,0M45.552,35.865a12.218,12.218,0,0,1-.774,4.042,8.515,8.515,0,0,1-4.87,4.87,12.232,12.232,0,0,1-4.042.774c-1.776.081-2.343.1-6.865.1s-5.09-.019-6.866-.1a12.231,12.231,0,0,1-4.042-.774,8.515,8.515,0,0,1-4.87-4.87,12.218,12.218,0,0,1-.774-4.042c-.082-1.776-.1-2.344-.1-6.866s.019-5.09.1-6.866a12.219,12.219,0,0,1,.774-4.042,8.521,8.521,0,0,1,4.871-4.87,12.228,12.228,0,0,1,4.042-.774c1.776-.081,2.343-.1,6.866-.1s5.09.019,6.865.1a12.231,12.231,0,0,1,4.042.773,8.517,8.517,0,0,1,4.87,4.871,12.217,12.217,0,0,1,.774,4.042c.081,1.776.1,2.343.1,6.866s-.019,5.09-.1,6.865"/>
        </g>
      </g>
    </g>
    <path id="Color_Overlay" data-name="Color Overlay" d="M1622.1,5801a4.183,4.183,0,0,1-4.1-4.183v-49.635a4.184,4.184,0,0,1,4.183-4.183h49.635a4.183,4.183,0,0,1,4.183,4.183v49.635a4.182,4.182,0,0,1-4.1,4.183Zm18.035-45.553a12.211,12.211,0,0,0-4.041.775,8.524,8.524,0,0,0-4.871,4.871,12.216,12.216,0,0,0-.775,4.042c-.08,1.775-.1,2.342-.1,6.866s.019,5.088.1,6.865a12.156,12.156,0,0,0,.775,4.042,8.51,8.51,0,0,0,4.87,4.87,12.221,12.221,0,0,0,4.041.774c1.776.08,2.343.1,6.866.1s5.09-.021,6.866-.1a12.23,12.23,0,0,0,4.042-.774,8.516,8.516,0,0,0,4.87-4.87,12.194,12.194,0,0,0,.774-4.042c.082-1.776.1-2.343.1-6.865s-.019-5.091-.1-6.866a12.179,12.179,0,0,0-.774-4.042,8.516,8.516,0,0,0-4.87-4.871,12.2,12.2,0,0,0-4.043-.773c-1.776-.083-2.342-.1-6.866-.1S1641.911,5755.366,1640.135,5755.447Zm.135,30.109a9.184,9.184,0,0,1-3.091-.575,5.5,5.5,0,0,1-3.161-3.159,9.207,9.207,0,0,1-.574-3.092c-.08-1.756-.1-2.283-.1-6.729s.018-4.973.1-6.729a9.212,9.212,0,0,1,.574-3.092,5.524,5.524,0,0,1,3.161-3.161,9.2,9.2,0,0,1,3.091-.573c1.756-.08,2.283-.1,6.729-.1s4.975.016,6.73.1a9.2,9.2,0,0,1,3.091.573,5.514,5.514,0,0,1,3.161,3.161,9.209,9.209,0,0,1,.574,3.092c.08,1.756.1,2.283.1,6.729s-.017,4.973-.1,6.729a9.2,9.2,0,0,1-.574,3.092,5.507,5.507,0,0,1-3.161,3.159,9.185,9.185,0,0,1-3.091.575c-1.756.08-2.283.1-6.73.1S1642.026,5785.636,1640.27,5785.556ZM1638.449,5772a8.551,8.551,0,1,0,8.55-8.552A8.55,8.55,0,0,0,1638.449,5772Zm15.442-8.891a2,2,0,1,0,2-2A2,2,0,0,0,1653.891,5763.11ZM1641.449,5772a5.55,5.55,0,1,1,5.55,5.55A5.551,5.551,0,0,1,1641.449,5772Z" fill="#e4022e"/>
  </g>
</svg>
