<svg xmlns="http://www.w3.org/2000/svg" width="1122" height="207.793" viewBox="0 0 1122 207.793">
  <g id="Logo_R3DMOTION_podstawowe" transform="translate(-270.128 -228.552)">
    <g id="Group_19" data-name="Group 19">
      <path id="Path_47" data-name="Path 47" d="M641.968,319.064q-6.157,7.917-17.27,11.582l14.455,23.984H614.114L601.477,333.4H589.4l-4.427,21.228H561.015L577.786,274.7h36.152c10.79,0,19.2,2.228,25.157,6.744q8.972,6.729,9,18.736a29.838,29.838,0,0,1-6.128,18.882Zm-21.58-24.1c-2.346-1.642-5.6-2.463-9.793-2.463H598.017l-5.043,23.4h14.279c5.336,0,9.441-1.173,12.315-3.548,2.9-2.346,4.339-5.717,4.339-10.057a8.37,8.37,0,0,0-3.518-7.359Z" fill="#e4032e"/>
      <path id="Path_48" data-name="Path 48" d="M720.664,288.893l-21.609,18.384q8.224,2.155,12.784,7.359a18.667,18.667,0,0,1,4.574,12.608,23.085,23.085,0,0,1-5.278,14.895,35.384,35.384,0,0,1-14.6,10.321,55.545,55.545,0,0,1-21.052,3.782,66.341,66.341,0,0,1-17.534-2.228,44.125,44.125,0,0,1-14.279-6.568l11.083-16.1a34.1,34.1,0,0,0,10.35,4.9,42.179,42.179,0,0,0,11.9,1.7c4.926,0,8.679-.821,11.318-2.463a7.727,7.727,0,0,0,3.929-6.89q0-6.729-11.259-6.744H670.7l2.991-14.279,18.12-15.422H658.681l3.724-17.475H723.6l-2.873,14.162Z" fill="#e4032e"/>
      <path id="Path_49" data-name="Path 49" d="M739.986,274.731h36.768q13.062,0,22.635,4.046a32.734,32.734,0,0,1,14.719,11.64,31.356,31.356,0,0,1,5.19,17.856c0,9.295-2.2,17.416-6.656,24.424a43.994,43.994,0,0,1-18.648,16.214q-11.963,5.717-27.444,5.717H723.244L740.015,274.7ZM767.2,336.6a30.819,30.819,0,0,0,15.041-3.489,23.24,23.24,0,0,0,9.588-9.588,28.729,28.729,0,0,0,3.225-13.869c-.029-5.16-1.789-9.558-5.336-12.49s-8.767-4.4-15.6-4.4H760.07L750.981,336.6H767.2Z" fill="#e4032e"/>
      <path id="Path_50" data-name="Path 50" d="M973.288,274.731l-16.537,79.927H934.614l8.62-42.133-28.118,34.246H904.59l-15.422-34.246-8.855,42.133h-22.02l16.771-79.927h19.469l19.938,46.238,38.38-46.238Z" fill="#1d1d1b"/>
      <path id="Path_51" data-name="Path 51" d="M997.1,351.785a34.254,34.254,0,0,1-14.66-12.432,33.266,33.266,0,0,1-5.19-18.267,45.577,45.577,0,0,1,25.362-41.781,59.219,59.219,0,0,1,27.385-6.157q12.8,0,22.313,4.457a34.254,34.254,0,0,1,14.66,12.432,33.266,33.266,0,0,1,5.19,18.267,45.577,45.577,0,0,1-25.362,41.781,59.219,59.219,0,0,1-27.385,6.157C1010.847,356.242,1003.429,354.746,997.1,351.785Zm38.351-18.032a25.525,25.525,0,0,0,9.295-10.115,29.769,29.769,0,0,0,3.225-13.986q0-8.092-5.278-12.96-5.278-4.838-14.719-4.838a26.017,26.017,0,0,0-14.015,3.753,25.525,25.525,0,0,0-9.295,10.116,29.769,29.769,0,0,0-3.225,13.986c0,5.395,1.789,9.734,5.278,12.96,3.518,3.225,8.415,4.867,14.719,4.867a26.018,26.018,0,0,0,14.015-3.753Z" fill="#1d1d1b"/>
      <path id="Path_52" data-name="Path 52" d="M1105.757,292.646H1079.75l3.841-17.915h75.822l-3.841,17.915h-25.89l-13.047,61.983H1092.68l13.048-61.983Z" fill="#1d1d1b"/>
      <path id="Path_53" data-name="Path 53" d="M1168.385,274.731h23.955l-16.771,79.927h-23.955Z" fill="#1d1d1b"/>
      <path id="Path_54" data-name="Path 54" d="M1216,351.785a34.256,34.256,0,0,1-14.66-12.432,33.266,33.266,0,0,1-5.19-18.267,45.577,45.577,0,0,1,25.362-41.781,59.219,59.219,0,0,1,27.385-6.157q12.8,0,22.313,4.457a34.254,34.254,0,0,1,14.66,12.432,33.266,33.266,0,0,1,5.19,18.267,45.577,45.577,0,0,1-25.362,41.781,59.219,59.219,0,0,1-27.385,6.157C1229.752,356.242,1222.334,354.746,1216,351.785Zm38.351-18.032a25.524,25.524,0,0,0,9.295-10.115,29.767,29.767,0,0,0,3.225-13.986q0-8.092-5.278-12.96-5.278-4.838-14.719-4.838a26.018,26.018,0,0,0-14.015,3.753,25.525,25.525,0,0,0-9.295,10.116,29.769,29.769,0,0,0-3.225,13.986c0,5.395,1.788,9.734,5.278,12.96,3.519,3.225,8.415,4.867,14.719,4.867a26.018,26.018,0,0,0,14.015-3.753Z" fill="#1d1d1b"/>
      <path id="Path_55" data-name="Path 55" d="M1392.128,274.731l-16.771,79.927h-19.7l-28.03-43.834-9.236,43.834h-23.456l16.771-79.927h19.7l28.148,43.717,9.089-43.717H1392.1Z" fill="#1d1d1b"/>
    </g>
    <g id="Group_20" data-name="Group 20">
      <path id="Path_56" data-name="Path 56" d="M420.248,239.9,383.51,250.659,355.333,385.093l37.178,25.626,21.873-6.392,34.569-164.985-19.439-2.111-9.295,2.7ZM396.176,383.832l-15.745-10.849,22.313-106.462,19.2-5.63-25.773,122.94Z" fill="#e4032e"/>
      <path id="Path_57" data-name="Path 57" d="M302.879,243.359,270.128,399.665l34.745,36.68,20.847-6.157,41.84-199.613-19.146-2.023-45.534,14.777Zm5.688,161.2L294.7,389.931l27.5-131.267,18.149-5.893L308.538,404.591Z" fill="#e4032e"/>
      <path id="Path_58" data-name="Path 58" d="M500.028,245.176l-17.416,5.366-21.668,6.714L437.43,369.494l32.692,18.53,21.14-6.04,28.235-134.7-19.439-2.111Zm-27.18,116.929L462.7,356.359l17.5-83.534,12.139-3.753Z" fill="#e4032e"/>
    </g>
  </g>
</svg>
