<svg xmlns="http://www.w3.org/2000/svg" xmlns:xlink="http://www.w3.org/1999/xlink" width="90" height="72" viewBox="0 0 90 72">
  <defs>
    <clipPath id="clip-path">
      <rect x="-2" width="90" height="72" fill="none"/>
    </clipPath>
    <clipPath id="clip-path-2">
      <rect id="Rectangle_9" data-name="Rectangle 9" width="389" height="72" transform="translate(0 0)" fill="none"/>
    </clipPath>
  </defs>
  <g id="Scroll_Group_2" data-name="Scroll Group 2" transform="translate(2)" clip-path="url(#clip-path)" style="isolation: isolate">
    <g id="R3D_Logo_Negative_copy" data-name="R3D Logo Negative copy">
      <g id="Group_18" data-name="Group 18">
        <g id="Group_17" data-name="Group 17" clip-path="url(#clip-path-2)">
          <path id="Path_35" data-name="Path 35" d="M128.923,31.365a12.12,12.12,0,0,1-5.988,4.015l5.007,8.307h-8.68l-4.377-7.358h-4.192l-1.537,7.358h-8.3L106.667,16h12.539q5.619,0,8.726,2.333a7.68,7.68,0,0,1,3.117,6.489,10.332,10.332,0,0,1-2.125,6.547m-7.482-8.348a5.869,5.869,0,0,0-3.4-.85h-4.361l-1.744,8.11h4.948a6.6,6.6,0,0,0,4.273-1.226,4.219,4.219,0,0,0,1.5-3.481,2.917,2.917,0,0,0-1.221-2.552" fill="#da0021"/>
          <path id="Path_36" data-name="Path 36" d="M156.2,20.9l-7.493,6.368a8.618,8.618,0,0,1,4.429,2.551,6.424,6.424,0,0,1,1.582,4.372,7.955,7.955,0,0,1-1.835,5.162,12.266,12.266,0,0,1-5.066,3.58,19.3,19.3,0,0,1-7.294,1.306,23.221,23.221,0,0,1-6.082-.771,15.271,15.271,0,0,1-4.952-2.275l3.847-5.578a11.8,11.8,0,0,0,3.588,1.7,14.7,14.7,0,0,0,4.132.593,7.44,7.44,0,0,0,3.919-.85,2.669,2.669,0,0,0,1.358-2.393q0-2.333-3.905-2.335h-3.564L139.9,27.39l6.278-5.34H134.691L135.978,16H157.2Z" fill="#da0021"/>
          <path id="Path_37" data-name="Path 37" d="M162.9,16h12.748a20.035,20.035,0,0,1,7.843,1.4,11.315,11.315,0,0,1,5.1,4.036,10.785,10.785,0,0,1,1.8,6.192,14.932,14.932,0,0,1-8.777,14.083,21.849,21.849,0,0,1-9.515,1.978H157.085Zm9.437,21.441a10.684,10.684,0,0,0,5.218-1.207,8.074,8.074,0,0,0,3.327-3.322A10.008,10.008,0,0,0,182,28.1a5.308,5.308,0,0,0-1.854-4.33,8.337,8.337,0,0,0-5.413-1.525h-4.864l-3.155,15.192Z" fill="#da0021"/>
          <path id="Path_38" data-name="Path 38" d="M243.787,16l-5.73,27.692h-7.673l2.989-14.6-9.745,11.868h-3.648l-5.35-11.868-3.073,14.6h-7.632L209.737,16h6.751l6.91,16.022L236.7,16Z" fill="#fff"/>
          <path id="Path_39" data-name="Path 39" d="M252.039,42.7a11.861,11.861,0,0,1-5.083-4.312,11.452,11.452,0,0,1-1.8-6.331,15.8,15.8,0,0,1,8.8-14.478,20.511,20.511,0,0,1,9.493-2.137,18.08,18.08,0,0,1,7.74,1.544,11.866,11.866,0,0,1,5.084,4.31,11.47,11.47,0,0,1,1.8,6.331,15.8,15.8,0,0,1-8.8,14.478,20.507,20.507,0,0,1-9.493,2.137,18.1,18.1,0,0,1-7.741-1.542m13.3-6.251a8.771,8.771,0,0,0,3.221-3.5,10.394,10.394,0,0,0,1.122-4.847,5.827,5.827,0,0,0-1.833-4.489,7.25,7.25,0,0,0-5.1-1.68,9,9,0,0,0-4.861,1.3,8.789,8.789,0,0,0-3.222,3.5,10.416,10.416,0,0,0-1.122,4.846,5.819,5.819,0,0,0,1.834,4.489,7.247,7.247,0,0,0,5.1,1.684,9,9,0,0,0,4.861-1.307" fill="#fff"/>
          <path id="Path_40" data-name="Path 40" d="M289.716,22.206H280.7L282.029,16h26.292l-1.329,6.21h-8.974l-4.527,21.482h-8.3Z" fill="#fff"/>
          <path id="Path_41" data-name="Path 41" d="M311.424,16h8.3l-5.814,27.692h-8.3Z" fill="#fff"/>
          <path id="Path_42" data-name="Path 42" d="M327.938,42.7a11.861,11.861,0,0,1-5.083-4.312,11.452,11.452,0,0,1-1.8-6.331,15.8,15.8,0,0,1,8.8-14.478,20.511,20.511,0,0,1,9.493-2.137,18.08,18.08,0,0,1,7.74,1.544,11.866,11.866,0,0,1,5.084,4.31,11.47,11.47,0,0,1,1.8,6.331,15.8,15.8,0,0,1-8.8,14.478,20.507,20.507,0,0,1-9.493,2.137,18.1,18.1,0,0,1-7.741-1.542m13.3-6.251a8.771,8.771,0,0,0,3.221-3.5,10.4,10.4,0,0,0,1.122-4.847,5.827,5.827,0,0,0-1.833-4.489,7.251,7.251,0,0,0-5.1-1.68,9,9,0,0,0-4.861,1.3,8.789,8.789,0,0,0-3.222,3.5,10.416,10.416,0,0,0-1.122,4.846,5.822,5.822,0,0,0,1.834,4.489,7.247,7.247,0,0,0,5.1,1.684,9,9,0,0,0,4.861-1.307" fill="#fff"/>
          <path id="Path_43" data-name="Path 43" d="M389,16l-5.814,27.692h-6.835L366.634,28.5l-3.2,15.191H355.3L361.115,16h6.835l9.76,15.151L380.865,16Z" fill="#fff"/>
          <path id="Path_44" data-name="Path 44" d="M52.051,3.926,39.316,7.653l-9.767,46.58L42.44,63.11,50.026,60.9,62.014,3.727l-6.736-.733ZM43.7,53.8l-5.459-3.759,7.736-36.9L52.632,11.2Z" fill="#da0021"/>
          <path id="Path_45" data-name="Path 45" d="M11.358,5.124,0,59.29,12.045,72l7.233-2.13L33.781.7,27.142,0Zm1.969,55.862-4.805-5.07L18.06,10.424l6.3-2.044Z" fill="#da0021"/>
          <path id="Path_46" data-name="Path 46" d="M79.707,5.756l-6.04,1.863L66.152,9.948,58,48.843l11.33,6.421,7.33-2.1L86.444,6.487ZM70.288,46.273l-3.521-2,6.069-28.941,4.212-1.3Z" fill="#da0021"/>
        </g>
      </g>
    </g>
  </g>
</svg>
